<?xml version="1.0" encoding="UTF-8"?>
<svg id="Layer_2" data-name="Layer 2" xmlns="http://www.w3.org/2000/svg" viewBox="0 0 466 347.71">
  <defs>
    <style>
      .cls-1 {
        fill: #ffcf74;
      }

      .cls-2 {
        fill: #6e7fdd;
      }

      .cls-3 {
        fill: #eb725f;
      }

      .cls-4 {
        fill: #fff;
      }

      .cls-5, .cls-6 {
        fill: #f5f9ff;
      }

      .cls-7 {
        fill: #92a6f4;
      }

      .cls-8 {
        fill: #edf0fc;
      }

      .cls-9 {
        fill: #0046a0;
        opacity: .1;
      }

      .cls-10 {
        fill: #e2e6ff;
      }

      .cls-11 {
        fill: #f8faff;
      }

      .cls-12 {
        fill: #d0dbf7;
      }

      .cls-13 {
        fill: #f9ab43;
      }

      .cls-6 {
        opacity: .3;
      }
    </style>
  </defs>
  <g id="OBJECTS">
    <ellipse class="cls-8" cx="225.19" cy="317.78" rx="224.59" ry="29.93"/>
    <g>
      <path class="cls-10" d="M422.88,147.2c12.71,3.68,30.95-4.96,25.9-14.8-4.22-8.21-19.35,6.3-24.97,12.14,1.25-3.62,2.41-7.28,3.46-10.96,10.87-7.47,15.85-26.8,5.13-29.24-9.2-2.09-7.53,19.79-6.68,27.44-.71,2.54-1.48,5.07-2.29,7.58.96-11.31-5.04-23.67-13.55-20.39-9.73,3.75,7.89,24.45,10.98,27.97-.12.33-.23.67-.35,1.01-1.44,3.93-3,7.83-4.67,11.67,1.74-11.04-3.08-23.46-11.71-21.02-9.86,2.79,5.04,24.26,8.2,28.62-1.42,2.91-2.91,5.78-4.48,8.6-1.18,2.11-2.41,4.2-3.68,6.26,3.91-11.28.21-26.24-9.27-24.37-10.23,2.02,3.58,25.43,6.02,29.43-2.97,4.42-6.18,8.67-9.66,12.7,5.03-10.94,2.65-26.45-7.04-25.37-10.11,1.13.86,24.44,3.35,29.47-3.93,4.16-8.17,8.01-12.71,11.47,7.07-9.69,7.86-25.23-1.8-26.15-10.05-.96-4.24,23.75-2.77,29.43-3.65,2.46-7.48,4.67-11.47,6.58-1.41.68-2.85,1.31-4.29,1.91-1.17.48-.66,2.42.53,1.93,5.91-2.43,11.51-5.49,16.76-9.06,9.62,9.23,30.2,9.76,30.07-1.41-.11-9.16-19.83-3.08-27.58-.34,4.02-2.92,7.84-6.14,11.41-9.62,1.26-1.23,2.48-2.49,3.68-3.77,11.32,6.99,31.47,3.29,29.06-7.59-1.96-8.86-19.68.84-26.86,5.18,4.11-4.64,7.87-9.59,11.31-14.74,11.9,5.79,31.32.4,28.03-10.15-2.68-8.59-19.28,2.32-26.17,7.31.84-1.32,1.66-2.65,2.46-3.99,2.54-4.27,4.88-8.66,7.05-13.13,12.32,5.01,31.53-1.94,27.38-12.26-3.52-8.74-20.53,5.05-26.35,10.11,2.07-4.4,3.98-8.87,5.73-13.39.65-1.68,1.27-3.37,1.88-5.06Z"/>
      <path class="cls-10" d="M43.66,236.17c-.69-13.22-14.82-27.62-22.46-19.62-6.38,6.67,12.29,16.22,19.65,19.62-3.83,0-7.67.11-11.49.32-10.62-7.83-30.52-6.2-29.3,4.73,1.04,9.37,21.17.64,28.11-2.67,2.63-.16,5.27-.26,7.91-.32-11,2.8-20.71,12.52-14.83,19.48,6.73,7.97,20.51-15.46,22.83-19.53.36,0,.71,0,1.07,0,4.19.07,8.38.27,12.55.6-11,1.97-21.15,10.6-16.02,17.95,5.86,8.4,21.27-12.71,24.36-17.12,3.21.39,6.41.86,9.6,1.42,2.38.42,4.76.91,7.12,1.43-11.94,0-24.86,8.4-19.99,16.74,5.26,9.01,22.86-11.71,25.83-15.32,5.15,1.36,10.22,3.01,15.16,4.97-11.98-1.17-25.86,6.16-21.66,14.96,4.38,9.18,22.81-8.81,26.75-12.82,5.21,2.35,10.24,5.1,15,8.25-11.47-3.51-26.41.83-24.11,10.26,2.39,9.81,23.83-3.77,28.72-7.02,3.52,2.64,6.86,5.53,9.97,8.68,1.1,1.11,2.17,2.26,3.21,3.43.84.95,2.5-.17,1.65-1.13-4.23-4.78-8.96-9.07-14.05-12.87,5.57-12.11-.67-31.73-11.18-27.95-8.62,3.11,3.58,19.74,8.72,26.17-4.08-2.85-8.37-5.39-12.83-7.63-1.57-.79-3.16-1.52-4.77-2.24,2.9-12.99-7.2-30.81-16.69-24.97-7.73,4.76,7.24,18.32,13.69,23.68-5.73-2.37-11.63-4.29-17.63-5.85,1.57-13.14-9.88-29.72-18.77-23.16-7.24,5.35,8.51,17.46,15.47,22.34-1.52-.36-3.05-.7-4.58-1.02-4.87-1-9.78-1.78-14.71-2.37.7-13.28-12.15-29.15-20.55-21.85-7.11,6.19,11.49,17.75,18.18,21.59-4.83-.51-9.68-.86-14.53-1.03-1.8-.06-3.6-.1-5.4-.12Z"/>
    </g>
    <g>
      <path class="cls-3" d="M428.79,193.22c3.04-1.82,6.18-3.46,9.41-4.9,15.27,2.36,27.8-6.75,27.8-6.75-17.31-5.24-25.48,2.34-27.96,5.4-1.02.46-2.04.94-3.03,1.42-4.78,2.33-9.34,5.09-13.62,8.21,9.24-10.12,10.04-23.34,10.04-23.34-16.52,11-14.13,23.32-13.4,25.91-3.71,2.98-7.18,6.26-10.37,9.81,6.1-13.45,1.56-27.34,1.56-27.34-11.18,16.12-4.71,26.65-2.98,28.95-2.38,2.78-4.6,5.71-6.62,8.78-.61.92-1.17,1.87-1.74,2.81,2.73-14.28-4.64-26.57-4.64-26.57-7.16,17.79.94,26.62,3.36,28.75-2.52,4.45-4.65,9.11-6.43,13.91,1.83-13.5-4.93-24.77-4.93-24.77-7.3,18.15,1.28,26.98,3.51,28.88-1.16,3.58-2.16,7.21-2.95,10.89-.18.82,1.08,1.16,1.25.35,1.26-5.82,2.99-11.5,5.19-16.98,15.69-.62,26.29-12.34,26.29-12.34-14.6-1.27-21.6,4.47-24.68,8.55,1.76-3.92,3.79-7.7,6.06-11.33,15.37,3.01,28.36-5.88,28.36-5.88-14.42-4.81-22.64-.39-26.41,2.91,2.39-3.49,5.03-6.82,7.92-9.94,14.84,4.8,28.75-2.4,28.75-2.4-12.44-5.93-20.75-3.71-25.29-1.15.9-.86,1.81-1.7,2.75-2.52,2.64-2.31,5.43-4.46,8.34-6.45,13.73,7.55,28.82,3.02,28.82,3.02-10.91-7.97-19.36-7.5-24.34-5.9Z"/>
      <path class="cls-3" d="M39.12,286.03c-3.54.01-7.08-.19-10.59-.6-11.92-9.83-27.34-8.4-27.34-8.4,12.2,13.35,23.1,11.01,26.79,9.64,1.12.12,2.23.24,3.34.33,5.3.44,10.63.4,15.9-.09-13.11,3.98-20.55,14.93-20.55,14.93,19.82-1.01,24.06-12.82,24.76-15.42,4.72-.67,9.37-1.72,13.92-3.13-12.12,8.44-15.31,22.7-15.31,22.7,17.85-8.14,17.66-20.5,17.36-23.36,3.47-1.17,6.87-2.56,10.18-4.17.99-.48,1.96-1.01,2.93-1.53-9.65,10.88-9.59,25.21-9.59,25.21,15.24-11.63,12.79-23.36,11.8-26.43,4.44-2.54,8.65-5.45,12.63-8.67-8.47,10.67-8.42,23.81-8.42,23.81,15.55-11.87,12.68-23.84,11.74-26.61,2.83-2.48,5.54-5.1,8.1-7.85.57-.61-.33-1.55-.9-.94-4.05,4.36-8.45,8.36-13.14,11.94-13.8-7.49-28.9-2.83-28.9-2.83,11.9,8.55,20.85,7.2,25.58,5.26-3.52,2.47-7.19,4.69-11,6.64-11.67-10.44-27.38-9.43-27.38-9.43,9.93,11.5,19.26,11.91,24.19,10.99-3.84,1.78-7.8,3.29-11.89,4.5-10.3-11.71-25.93-12.63-25.93-12.63,7.66,11.46,15.94,13.79,21.15,13.91-1.21.28-2.43.54-3.66.76-3.45.64-6.95,1.06-10.46,1.28-7.94-13.51-23.23-17.33-23.23-17.33,5.3,12.42,12.81,16.34,17.91,17.51Z"/>
    </g>
    <rect class="cls-7" x="232.13" y="83.61" width="163.92" height="238.33" rx="4.4" ry="4.4"/>
    <rect class="cls-12" x="239.84" y="96.45" width="148.51" height="203.85"/>
    <g>
      <g>
        <g>
          <rect class="cls-5" x="256.89" y="111.68" width="114.4" height="172.38"/>
          <rect class="cls-10" x="256.89" y="111.68" width="114.4" height="10.53"/>
        </g>
        <g>
          <path class="cls-3" d="M266.07,117.18c0,1.33-1.08,2.41-2.41,2.41s-2.41-1.08-2.41-2.41,1.08-2.41,2.41-2.41,2.41,1.08,2.41,2.41Z"/>
          <path class="cls-13" d="M274.18,117.18c0,1.33-1.08,2.41-2.41,2.41s-2.41-1.08-2.41-2.41,1.08-2.41,2.41-2.41,2.41,1.08,2.41,2.41Z"/>
          <path class="cls-2" d="M282.3,117.18c0,1.33-1.08,2.41-2.41,2.41s-2.41-1.08-2.41-2.41,1.08-2.41,2.41-2.41,2.41,1.08,2.41,2.41Z"/>
        </g>
      </g>
      <polygon class="cls-10" points="346.94 179.6 337.27 169.92 314.09 193.1 290.91 169.92 281.24 179.6 304.42 202.78 281.24 225.95 290.91 235.63 314.09 212.45 337.27 235.63 346.94 225.95 323.77 202.78 346.94 179.6"/>
    </g>
    <g>
      <rect class="cls-2" x="69" y="169.92" width="225.8" height="148.98" rx="4.15" ry="4.15"/>
      <rect class="cls-12" x="75.61" y="176.85" width="212.6" height="135.13"/>
      <path class="cls-2" d="M54.33,305.26v11.99c0,2.58,2.11,4.69,4.69,4.69h245.77c2.58,0,4.69-2.11,4.69-4.69v-11.99H54.33Z"/>
      <path class="cls-7" d="M144.13,305.26v3.55c0,.76.62,1.39,1.39,1.39h72.78c.76,0,1.39-.62,1.39-1.39v-3.55h-75.56Z"/>
    </g>
    <g>
      <g>
        <path class="cls-13" d="M418.32,295.77c-.68,3.08-3.83,5.6-6.98,5.6h-66.93c-3.16,0-6.3-2.52-6.98-5.6l-14.93-67.2c-.68-3.08,1.34-5.6,4.49-5.6h101.76c3.16,0,5.18,2.52,4.49,5.6l-14.93,67.2Z"/>
        <path class="cls-1" d="M392.79,230.98c-3.16,0-6.61,2.43-7.67,5.4l-3.18,8.91c-1.06,2.97-4.51,5.4-7.67,5.4h-48.57c-3.16,0-5.07,2.49-4.25,5.54l16.15,60.17c.82,3.05,4.07,5.54,7.23,5.54h66.31c3.16,0,6.41-2.49,7.23-5.54l16.15-60.17c.82-3.05,2.36-7.97,3.42-10.94l3.18-8.91c1.06-2.97-.65-5.4-3.81-5.4h-44.51Z"/>
        <path class="cls-9" d="M437.3,230.98h-17.9c2.15,6.2,3.34,12.82,3.34,19.71,0,34.3-28.88,62.1-64.51,62.1-7.98,0-15.61-1.4-22.67-3.95l2.03,7.57c.82,3.05,4.07,5.54,7.23,5.54h66.31c3.16,0,6.41-2.49,7.23-5.54l16.15-60.17c.82-3.05,2.36-7.97,3.42-10.94l3.18-8.91c1.06-2.97-.65-5.4-3.81-5.4Z"/>
      </g>
      <g>
        <g>
          <path class="cls-3" d="M371.29,276.04c0,3.33-1.93,6.03-4.32,6.03s-4.32-2.7-4.32-6.03,1.93-6.03,4.32-6.03,4.32,2.7,4.32,6.03Z"/>
          <path class="cls-3" d="M400.02,276.04c0,3.33-1.93,6.03-4.32,6.03s-4.32-2.7-4.32-6.03,1.93-6.03,4.32-6.03,4.32,2.7,4.32,6.03Z"/>
        </g>
        <path class="cls-3" d="M371.43,292.91c1.48-1.62,3.54-2.9,5.59-3.64,5.19-1.87,10.21.08,14.16,3.64,1.06.95,2.62-.61,1.56-1.56-4.38-3.94-10.07-6.25-15.9-4.35-2.56.84-5.15,2.34-6.98,4.35-.96,1.05.6,2.62,1.56,1.56h0Z"/>
      </g>
    </g>
    <g>
      <g>
        <g>
          <g>
            <rect class="cls-11" x="89.77" y="222.26" width="97.92" height="72.23"/>
            <rect class="cls-10" x="89.77" y="222.26" width="97.92" height="9.01"/>
          </g>
          <g>
            <path class="cls-3" d="M97.64,226.97c0,1.14-.92,2.06-2.06,2.06s-2.06-.92-2.06-2.06.92-2.06,2.06-2.06,2.06.92,2.06,2.06Z"/>
            <path class="cls-13" d="M104.58,226.97c0,1.14-.92,2.06-2.06,2.06s-2.06-.92-2.06-2.06.92-2.06,2.06-2.06,2.06.92,2.06,2.06Z"/>
            <path class="cls-2" d="M111.52,226.97c0,1.14-.92,2.06-2.06,2.06s-2.06-.92-2.06-2.06.92-2.06,2.06-2.06,2.06.92,2.06,2.06Z"/>
          </g>
        </g>
        <path class="cls-12" d="M133.03,267.15c0-3.02,1.2-5.37,3.6-7.06l1.15-.8c1.09-.71,1.86-1.29,2.29-1.75.43-.46.64-1.03.64-1.71,0-1.72-1.44-2.57-4.31-2.57-1.33,0-2.71.18-4.13.53-1.42.35-2.77.86-4.04,1.51v-6.84c2.72-1.24,5.77-1.86,9.14-1.86,3.64,0,6.53.76,8.66,2.29,2.13,1.52,3.2,3.63,3.2,6.32,0,1.51-.34,2.73-1.02,3.66-.68.93-1.84,1.97-3.46,3.13-1.09.8-1.89,1.41-2.4,1.84-.5.43-.88.91-1.13,1.44-.25.53-.38,1.18-.38,1.95v.84h-7.81v-.93ZM133.94,277.78c-.78-.78-1.18-1.75-1.18-2.91s.39-2.16,1.18-2.93c.78-.77,1.77-1.15,2.95-1.15s2.14.39,2.95,1.18c.81.78,1.22,1.75,1.22,2.91s-.41,2.12-1.22,2.91c-.81.78-1.8,1.18-2.95,1.18s-2.17-.39-2.95-1.18Z"/>
      </g>
      <g>
        <g>
          <g>
            <rect class="cls-5" x="174.83" y="192.32" width="97.92" height="72.23"/>
            <rect class="cls-10" x="174.83" y="192.32" width="97.92" height="9.01"/>
          </g>
          <g>
            <circle class="cls-3" cx="180.63" cy="197.04" r="2.06"/>
            <path class="cls-13" d="M189.63,197.04c0,1.14-.92,2.06-2.06,2.06s-2.06-.92-2.06-2.06.92-2.06,2.06-2.06,2.06.92,2.06,2.06Z"/>
            <circle class="cls-2" cx="194.52" cy="197.04" r="2.06"/>
          </g>
        </g>
        <path class="cls-12" d="M218.09,237.21c0-3.02,1.2-5.37,3.6-7.06l1.15-.8c1.09-.71,1.86-1.29,2.29-1.75.43-.46.64-1.03.64-1.71,0-1.72-1.44-2.57-4.31-2.57-1.33,0-2.71.18-4.13.53-1.42.35-2.77.86-4.04,1.51v-6.84c2.72-1.24,5.77-1.86,9.14-1.86,3.64,0,6.53.76,8.66,2.29,2.13,1.52,3.2,3.63,3.2,6.32,0,1.51-.34,2.73-1.02,3.66-.68.93-1.84,1.97-3.46,3.13-1.09.8-1.89,1.41-2.4,1.84-.5.43-.88.91-1.13,1.44-.25.53-.38,1.18-.38,1.95v.84h-7.81v-.93ZM219,247.84c-.78-.78-1.18-1.75-1.18-2.91s.39-2.16,1.18-2.93c.78-.77,1.77-1.15,2.95-1.15s2.14.39,2.95,1.18c.81.78,1.22,1.75,1.22,2.91s-.41,2.12-1.22,2.91c-.81.78-1.8,1.18-2.95,1.18s-2.17-.39-2.95-1.18Z"/>
      </g>
    </g>
    <g>
      <g>
        <path class="cls-10" d="M200.41,103.35l-15.5,4.21-4.25-15.63-31.65,8.6,14.78,54.39,47.21-12.83-10.51-38.7-.08-.05ZM184.53,134.63c-.43.73-1.07,1.2-1.9,1.43-.86.23-1.65.14-2.37-.27-.72-.41-1.2-1.04-1.42-1.87-.23-.86-.14-1.64.28-2.35.42-.71,1.05-1.18,1.91-1.42.83-.23,1.62-.14,2.37.27.74.41,1.23,1.03,1.45,1.86.23.83.12,1.62-.31,2.34ZM186.86,119.3c-.31.81-.94,1.79-1.89,2.94-.64.79-1.09,1.39-1.37,1.8-.28.41-.46.83-.54,1.27-.08.44-.04.93.11,1.49l.17.61-5.65,1.54-.18-.67c-.59-2.18-.19-4.12,1.21-5.81l.68-.8c.65-.73,1.09-1.3,1.31-1.72.22-.42.26-.87.13-1.36-.34-1.24-1.55-1.58-3.62-1.02-.96.26-1.92.66-2.88,1.2-.96.54-1.83,1.16-2.63,1.89l-1.34-4.95c1.73-1.43,3.81-2.48,6.25-3.15,2.63-.72,4.87-.73,6.71-.05,1.84.68,3.03,2,3.56,3.95.3,1.09.29,2.04-.02,2.85Z"/>
        <polygon class="cls-10" points="183.67 92.6 186.82 104.18 198.3 101.06 183.67 92.6"/>
      </g>
      <g>
        <path class="cls-10" d="M288.32,41.37l-20.87-6.68,6.74-21.04L231.58,0l-23.45,73.22,63.56,20.35,16.68-52.1-.06-.11ZM246.92,65.39c-1.04.51-2.12.58-3.24.22-1.15-.37-1.99-1.06-2.51-2.07-.52-1.01-.6-2.08-.24-3.2.37-1.15,1.06-1.98,2.06-2.49,1-.51,2.08-.57,3.23-.2,1.12.36,1.96,1.05,2.51,2.07.55,1.02.64,2.09.28,3.21-.36,1.12-1.06,1.94-2.1,2.45ZM260.97,49.58c-.95.7-2.4,1.35-4.35,1.97-1.32.44-2.29.79-2.91,1.05-.62.26-1.14.61-1.55,1.05-.41.44-.74,1.04-.98,1.78l-.26.82-7.61-2.44.29-.91c.94-2.94,2.84-4.86,5.7-5.75l1.37-.42c1.29-.35,2.21-.68,2.77-.99.56-.31.95-.8,1.16-1.46.54-1.67-.6-2.96-3.39-3.85-1.3-.42-2.69-.67-4.19-.77-1.49-.1-2.96-.03-4.4.21l2.13-6.66c3.04-.36,6.2-.02,9.49,1.04,3.55,1.14,6.12,2.78,7.72,4.93,1.6,2.15,1.98,4.54,1.14,7.16-.47,1.47-1.18,2.55-2.14,3.25Z"/>
        <polygon class="cls-10" points="277.14 16.65 272.15 32.23 287.61 37.19 277.14 16.65"/>
      </g>
    </g>
    <g>
      <g>
        <rect class="cls-3" x="306.63" y="56.27" width="105.86" height="72.53" rx="8.32" ry="8.32"/>
        <g>
          <path class="cls-4" d="M383.81,117.17h-48.49c-2.73,0-4.89-1.09-5.93-3s-.77-4.31.73-6.6h0s23.62-36.18,23.62-36.18c1.45-2.22,3.57-3.49,5.82-3.49s4.38,1.27,5.82,3.49l23.62,36.19c1.49,2.29,1.76,4.69.73,6.6-1.03,1.9-3.19,3-5.92,3ZM334.41,110.37c-.53.81-.54,1.28-.51,1.36.04.05.44.3,1.41.3h48.49c.97,0,1.37-.25,1.42-.32.02-.07.01-.54-.52-1.35l-23.62-36.18c-.47-.73-1.05-1.16-1.53-1.16s-1.05.43-1.53,1.16l-23.62,36.18Z"/>
          <path class="cls-4" d="M358.08,107.36c-.39-.39-.59-.88-.59-1.45s.2-1.06.59-1.45c.39-.39.88-.59,1.45-.59s1.06.2,1.47.59c.4.39.6.88.6,1.45s-.2,1.06-.6,1.45c-.4.39-.89.59-1.47.59s-1.06-.2-1.45-.59ZM356.87,83.28h5.39l-1,17.24h-3.39l-1-17.24Z"/>
        </g>
      </g>
      <g>
        <rect class="cls-3" x="37.9" y="138.31" width="87.74" height="60.11" rx="6.9" ry="6.9"/>
        <path class="cls-4" d="M81.77,144.36c-13.24,0-24.01,10.77-24.01,24.01s10.77,24.01,24.01,24.01,24.01-10.77,24.01-24.01-10.77-24.01-24.01-24.01ZM81.77,148.89c4.56,0,8.75,1.58,12.07,4.21l-27.35,27.35c-2.63-3.32-4.21-7.52-4.21-12.07,0-10.74,8.74-19.48,19.48-19.48ZM81.77,187.85c-4.56,0-8.75-1.58-12.07-4.21l27.35-27.35c2.63,3.32,4.21,7.52,4.21,12.07,0,10.74-8.74,19.48-19.48,19.48Z"/>
      </g>
    </g>
    <g>
      <g>
        <g>
          <rect class="cls-3" x="243.1" y="301.33" width="61.58" height="7.28" transform="translate(-104.73 147.9) rotate(-25.54)"/>
          <rect class="cls-1" x="279.91" y="292.98" width="22.88" height="7.28" transform="translate(-99.42 154.6) rotate(-25.54)"/>
        </g>
        <g>
          <path class="cls-3" d="M353.83,266.77c-7.39-15.46-25.91-22.01-41.37-14.62-15.46,7.39-22.01,25.91-14.62,41.37,7.39,15.46,25.91,22.01,41.37,14.62,15.46-7.39,22.01-25.91,14.62-41.37ZM303.94,290.61c-5.78-12.09-.66-26.58,11.43-32.35,12.09-5.78,26.58-.66,32.35,11.43,5.78,12.09.66,26.58-11.43,32.35-12.09,5.78-26.58.66-32.35-11.43Z"/>
          <circle class="cls-6" cx="325.83" cy="280.15" r="24.26" transform="translate(-53.78 78.79) rotate(-12.75)"/>
        </g>
      </g>
      <path class="cls-4" d="M325.41,274.45c-3.52,1.68-7.74.19-9.42-3.33-1.68-3.52-.19-7.74,3.33-9.42,3.52-1.68,7.74-.19,9.42,3.33,1.68,3.52.19,7.74-3.33,9.42Z"/>
    </g>
    <g>
      <path class="cls-12" d="M164.06,38.22c.98-4.22,3.42-7.12,7.32-8.7l1.87-.74c1.76-.64,3.02-1.2,3.77-1.71.75-.5,1.23-1.23,1.46-2.18.56-2.4-1.17-4.07-5.18-5-1.86-.43-3.84-.63-5.94-.6-2.1.03-4.15.3-6.14.79l2.22-9.55c4.21-.85,8.67-.73,13.39.37,5.09,1.18,8.87,3.19,11.35,6.01,2.48,2.82,3.29,6.12,2.41,9.88-.49,2.11-1.36,3.71-2.62,4.79-1.26,1.08-3.21,2.16-5.86,3.25-1.79.76-3.11,1.36-3.95,1.8-.84.44-1.53.98-2.05,1.65-.53.66-.91,1.53-1.16,2.61l-.27,1.18-10.92-2.54.3-1.3ZM161.87,53.38c-.84-1.35-1.07-2.83-.7-4.45.39-1.65,1.25-2.89,2.6-3.71,1.34-.82,2.85-1.04,4.5-.65,1.61.38,2.86,1.24,3.74,2.6.88,1.36,1.14,2.85.76,4.46s-1.26,2.84-2.65,3.67c-1.39.83-2.9,1.06-4.51.68-1.65-.39-2.9-1.25-3.74-2.6Z"/>
      <path class="cls-12" d="M90.4,121.4c-1.13-2.31-1.09-4.56.11-6.75l.58-1.04c.57-.95.94-1.69,1.09-2.2.16-.51.11-1.03-.15-1.55-.64-1.31-2.06-1.43-4.26-.36-1.02.5-2.01,1.15-2.96,1.96-.95.8-1.8,1.69-2.53,2.67l-2.56-5.24c1.62-1.97,3.72-3.59,6.31-4.85,2.79-1.36,5.28-1.86,7.49-1.49,2.2.37,3.81,1.58,4.82,3.65.57,1.16.76,2.22.59,3.19-.17.97-.67,2.2-1.48,3.69-.54,1.02-.92,1.79-1.15,2.31-.22.52-.33,1.03-.33,1.53,0,.5.15,1.05.44,1.64l.32.65-5.98,2.93-.35-.71ZM95.09,129.2c-.89-.31-1.56-.9-1.99-1.79-.44-.91-.51-1.8-.2-2.68.31-.88.92-1.55,1.83-1.99.88-.43,1.78-.5,2.7-.21.92.3,1.59.89,2.02,1.77s.48,1.78.15,2.68c-.33.91-.94,1.57-1.82,2.01-.91.44-1.81.51-2.7.21Z"/>
    </g>
    <g>
      <path class="cls-1" d="M80.45,77.68v-3.92h-4.97c-.33-2.23-1.2-4.28-2.49-6.01l3.51-3.51-2.77-2.77-3.51,3.51c-1.73-1.29-3.78-2.16-6.01-2.49v-4.97h-3.92v4.97c-2.23.33-4.28,1.2-6.01,2.49l-3.51-3.51-2.77,2.77,3.51,3.51c-1.29,1.73-2.16,3.78-2.49,6.01h-4.97v3.92h4.97c.33,2.23,1.2,4.28,2.49,6.01l-3.51,3.51,2.77,2.77,3.51-3.51c1.73,1.29,3.78,2.16,6.01,2.49v4.97h3.92v-4.97c2.23-.33,4.28-1.2,6.01-2.49l3.51,3.51,2.77-2.77-3.51-3.51c1.29-1.73,2.16-3.78,2.49-6.01h4.97ZM62.24,84.01c-4.58,0-8.29-3.71-8.29-8.29s3.71-8.29,8.29-8.29,8.29,3.71,8.29,8.29-3.71,8.29-8.29,8.29Z"/>
      <path class="cls-13" d="M122.71,53.51v-5.49h-6.96c-.46-3.12-1.68-5.99-3.48-8.41l4.92-4.92-3.88-3.88-4.92,4.92c-2.42-1.8-5.29-3.02-8.41-3.48v-6.96h-5.49v6.96c-3.12.46-5.99,1.68-8.41,3.48l-4.92-4.92-3.88,3.88,4.92,4.92c-1.8,2.42-3.02,5.29-3.48,8.41h-6.96v5.49h6.96c.46,3.12,1.68,5.99,3.48,8.41l-4.92,4.92,3.88,3.88,4.92-4.92c2.42,1.8,5.29,3.02,8.41,3.48v6.96h5.49v-6.96c3.12-.46,5.99-1.68,8.41-3.48l4.92,4.92,3.88-3.88-4.92-4.92c1.8-2.42,3.02-5.29,3.48-8.41h6.96ZM97.23,62.37c-6.41,0-11.6-5.2-11.6-11.6s5.2-11.6,11.6-11.6,11.6,5.2,11.6,11.6-5.2,11.6-11.6,11.6Z"/>
    </g>
  </g>
</svg>