<?xml version="1.0" encoding="UTF-8"?>
<svg id="Layer_2" data-name="Layer 2" xmlns="http://www.w3.org/2000/svg" viewBox="0 0 208.42 383.79">
  <g id="BASE_2_copy_2" data-name="BASE 2 copy 2">
    <g>
      <path d="M12.78,375.49v-17.58h10.5v13.32l1.43,1.86h6.97l2.1-2.73v-67.38h10.92v71.64l-7.06,9.17h-18.48l-6.38-8.3Z"/>
      <path d="M50.32,374.62v-62.36l6.97-9.28h21.08l7.06,9.17v62.47l-7.06,9.17h-21.08l-6.97-9.17ZM72.58,373.42l1.93-2.51v-55.04l-1.93-2.51h-9.41l-1.93,2.51v55.04l1.93,2.51h9.41Z"/>
      <path d="M91.06,374.62v-71.64h10.92v67.93l1.93,2.51h7.9l2.02-2.51v-67.93h10.92v71.64l-7.06,9.17h-19.66l-6.97-9.17Z"/>
      <path d="M193.79,302.98l-8.99,80.82h-15.96l-7.56-68.15-7.56,68.15h-16.04l-8.99-80.82h10.08l6.8,69.79h.59l8.23-69.79h13.78l8.15,69.79h.67l7.06-69.79h9.74Z"/>
    </g>
    <g>
      <polygon points="189.43 217.82 189.43 281.22 33.43 281.22 33.43 217.82 52.43 217.82 52.43 262.22 170.43 262.22 170.43 217.82 189.43 217.82"/>
      <polygon points="201.1 74.58 183.79 74.58 183.43 74.22 183.07 74.58 172.18 74.58 139.12 41.53 125.86 28.27 117.21 36.92 47.68 106.45 27 127.13 0 127.13 112.36 14.77 112.06 14.47 126.53 0 201.1 74.58"/>
      <polygon points="208.42 127.51 189.43 127.51 189.43 217.82 170.43 217.82 170.43 128.22 155.61 128.22 156.32 127.51 171.7 127.28 171.7 119.94 167.79 116.04 154.7 102.95 130.7 78.95 84.43 125.22 54.73 125.22 130.12 49.83 130.47 50.18 168.97 88.68 171.7 91.42 181.85 101.57 182.17 101.26 208.42 127.51"/>
      <polygon points="52.08 127.87 52.43 128.22 52.43 217.82 33.43 217.82 33.43 127.51 52.44 127.51 52.08 127.87"/>
    </g>
    <rect x="115.43" y="140.22" width="18" height="18"/>
    <rect x="137.43" y="140.22" width="18" height="18"/>
    <rect x="115.43" y="161.22" width="18" height="18"/>
    <rect x="137.43" y="161.22" width="18" height="18"/>
    <rect x="95.43" y="224.22" width="33" height="42"/>
  </g>
</svg>