<?xml version="1.0" encoding="UTF-8"?>
<svg id="Layer_2" data-name="Layer 2" xmlns="http://www.w3.org/2000/svg" viewBox="0 0 162.39 325.91">
  <defs>
    <style>
      .cls-1 {
        fill: currentColor;
      }

      .cls-2 {
        isolation: isolate;
      }
    </style>
  </defs>
  <g id="BASE_2" data-name="BASE 2">
    <g>
      <path class="cls-1" d="M2.44,244.88h23.76c.65,0,1.28.29,1.73.81l5.55,6.31c.45.51.7,1.2.7,1.92v18.38c0,.72-.25,1.41-.7,1.92l-2.98,3.4c-.94,1.07-.93,2.79.01,3.86l2.95,3.31c.46.51.71,1.21.71,1.94v30.13c0,.72-.25,1.41-.7,1.92l-5.55,6.31c-.46.52-1.08.81-1.73.81H2.44c-1.35,0-2.44-1.23-2.44-2.74v-75.55c0-1.51,1.09-2.74,2.44-2.74ZM21.13,274.42l1.43-1.6c.46-.51.71-1.21.71-1.94v-14.3c0-.73-.26-1.42-.71-1.94l-.5-.57c-.46-.51-1.08-.8-1.72-.8h-6.97c-1.35,0-2.44,1.23-2.44,2.74v16.47c0,1.51,1.09,2.74,2.44,2.74h6.04c.65,0,1.27-.29,1.72-.8ZM22.05,316.71l.5-.57c.46-.51.71-1.21.71-1.94v-26.34c0-.73-.26-1.42-.71-1.94l-1.43-1.6c-.46-.51-1.08-.8-1.72-.8h-6.04c-1.35,0-2.44,1.23-2.44,2.74v28.51c0,1.51,1.09,2.74,2.44,2.74h6.97c.65,0,1.27-.29,1.72-.8Z"/>
      <path class="cls-1" d="M41.34,244.88h23.34c.65,0,1.28.29,1.73.81l5.55,6.31c.45.51.7,1.2.7,1.92v21.95c0,.73-.26,1.42-.71,1.94l-2.95,3.31c-.95,1.06-.95,2.79-.01,3.86l2.98,3.4c.45.51.7,1.2.7,1.92v32.86c0,1.51-1.09,2.74-2.44,2.74h-6.04c-1.35,0-2.44-1.23-2.44-2.74v-31.41c0-.74-.27-1.45-.74-1.96l-1.41-1.53c-.45-.5-1.06-.77-1.7-.77h-5.65c-1.35,0-2.44,1.23-2.44,2.74v32.95c0,1.51-1.09,2.74-2.44,2.74h-6.04c-1.35,0-2.44-1.23-2.44-2.74v-75.55c0-1.51,1.09-2.74,2.44-2.74ZM59.52,277.75l1.49-1.63c.47-.52.74-1.22.74-1.96v-16.98c0-.75-.27-1.46-.75-1.98l-.56-.6c-.45-.49-1.06-.76-1.69-.76h-6.49c-1.35,0-2.44,1.23-2.44,2.74v19.21c0,1.51,1.09,2.74,2.44,2.74h5.56c.63,0,1.24-.28,1.7-.77Z"/>
      <path class="cls-1" d="M79.82,244.88h6.04c1.35,0,2.44,1.23,2.44,2.74v75.55c0,1.51-1.09,2.74-2.44,2.74h-6.04c-1.35,0-2.44-1.23-2.44-2.74v-75.55c0-1.51,1.09-2.74,2.44-2.74Z"/>
      <path class="cls-1" d="M95.36,244.88h23.76c.65,0,1.28.29,1.73.81l5.55,6.31c.45.51.7,1.2.7,1.92v62.93c0,.72-.25,1.41-.7,1.92l-5.55,6.31c-.46.52-1.08.81-1.73.81h-23.76c-1.35,0-2.44-1.23-2.44-2.74v-75.55c0-1.51,1.09-2.74,2.44-2.74ZM114.98,316.14l.5-.57c.46-.51.71-1.21.71-1.94v-56.5c0-.73-.26-1.42-.71-1.94l-.5-.57c-.46-.51-1.08-.8-1.72-.8h-6.97c-1.35,0-2.44,1.23-2.44,2.74v57.63c0,1.51,1.09,2.74,2.44,2.74h6.97c.65,0,1.27-.29,1.72-.8Z"/>
      <path class="cls-1" d="M130.47,317.6v-11.31c0-1.51,1.09-2.74,2.44-2.74h5.62c1.35,0,2.44,1.23,2.44,2.74v7.64c0,.73.26,1.42.71,1.94h0c.46.51,1.08.8,1.72.8h4.95c.65,0,1.27-.29,1.72-.8l.67-.75c.46-.51.71-1.21.71-1.94v-65.55c0-1.51,1.09-2.74,2.44-2.74h6.04c1.35,0,2.44,1.23,2.44,2.74v69.23c0,.73-.26,1.42-.71,1.94l-5.63,6.32c-.46.51-1.08.8-1.72.8h-16.46c-.65,0-1.27-.29-1.72-.8l-4.96-5.56c-.46-.51-.71-1.21-.71-1.94Z"/>
    </g>
    <g id="B_Shape_commited" data-name="B Shape commited" class="cls-2">
      <path class="cls-1" d="M139.51,196c.72-.73,1.12-1.72,1.12-2.74l-.1-86.8.12.12-11.59-11.9,11.59-11.9-.15.15-.07-64.48c0-1.02-.4-2-1.12-2.73l-14.34-14.56c-.73-.74-1.73-1.16-2.78-1.16h-31.87c-2.16,0-3.9,1.75-3.9,3.91l.23,204.12c0,2.15,1.75,3.9,3.9,3.9h31.65c1.05,0,2.05-.42,2.78-1.16l14.53-14.75ZM104.96,14.4h17.4c2.15,0,3.9,1.75,3.9,3.9v65.16c0,2.15-1.75,3.9-3.9,3.9h-17.4c-2.15,0-3.9-1.75-3.9-3.9V18.3c0-2.15,1.75-3.9,3.9-3.9ZM104.96,101.76h17.4c2.15,0,3.9,1.75,3.9,3.9v87.96c0,2.15-1.75,3.9-3.9,3.9h-17.4c-2.15,0-3.9-1.75-3.9-3.9v-87.96c0-2.15,1.75-3.9,3.9-3.9Z"/>
      <path class="cls-1" d="M21.89,15.93c-.72.73-1.12,1.72-1.12,2.74l.1,86.8-.12-.12,11.59,11.9-11.59,11.9.15-.15.07,66.07,15.46,15.7c.73.74,1.73,1.16,2.78,1.16h31.87c2.16,0,3.9-1.75,3.9-3.91l-.23-204.12c0-2.15-1.75-3.9-3.9-3.9h-31.65c-1.05,0-2.05.42-2.78,1.16l-14.53,14.75ZM56.45,197.54h-17.4c-2.15,0-3.9-1.75-3.9-3.9v-65.16c0-2.15,1.75-3.9,3.9-3.9h17.4c2.15,0,3.9,1.75,3.9,3.9v65.16c0,2.15-1.75,3.9-3.9,3.9ZM56.45,110.18h-17.4c-2.15,0-3.9-1.75-3.9-3.9V18.32c0-2.15,1.75-3.9,3.9-3.9h17.4c2.15,0,3.9,1.75,3.9,3.9v87.96c0,2.15-1.75,3.9-3.9,3.9Z"/>
    </g>
  </g>
</svg>